Coordinates
version=1
nRows=21
nColumns=22
inDegrees=yes

Units are S.I. units (second, meters, Newtons, ...)
If the header above contains a line with 'inDegrees', this indicates whether rotational values are in degrees (yes) or radians (no).

endheader
time	pelvis_tilt	pelvis_list	pelvis_rotation	pelvis_tx	pelvis_ty	pelvis_tz	hip_flexion_r	hip_adduction_r	hip_rotation_r	knee_angle_r	ankle_angle_r	subtalar_angle_r	hip_flexion_l	hip_adduction_l	hip_rotation_l	knee_angle_l	ankle_angle_l	subtalar_angle_l	lumbar_extension	lumbar_bending	lumbar_rotation
      2.45000000	     -8.88667958	      8.32259319	    -44.62897532	     -0.83538763	      0.85337565	      0.05995479	     -2.71317267	     -6.84395842	     11.49426062	    -22.48010679	      9.34568374	      9.03938276	     46.62536606	    -10.29975671	     -8.31880865	    -77.84895544	      9.45880617	      7.07783724	     -6.89302205	     -2.11543894	     25.98404631
      2.46000000	     -9.04323021	      8.44481796	    -44.86078272	     -0.81526901	      0.86108320	      0.07118666	     -4.29247468	     -7.38869321	     12.07283403	    -20.58228822	      4.14178094	      9.95895064	     46.35041869	    -10.06919448	     -8.32000396	    -72.74992271	      9.35760692	      6.73377989	     -6.15836877	     -2.18052185	     26.57496083
      2.47000000	     -9.29681872	      8.47891477	    -45.02428668	     -0.79507841	      0.86841011	      0.08238305	     -5.52211454	     -7.72894691	     12.59366406	    -19.23350090	     -0.72934461	     10.60564384	     45.82317900	     -9.86400293	     -8.14272558	    -67.33024833	      9.20895545	      6.54463652	     -5.42741562	     -2.09937639	     27.04289037
      2.48000000	     -9.65223311	      8.38753741	    -45.11932874	     -0.77482551	      0.87520632	      0.09355381	     -6.38765782	     -7.81751422	     12.98966677	    -18.54346997	     -5.00923190	     10.88282075	     45.05111082	     -9.72252704	     -7.75628875	    -61.68532078	      9.02205692	      6.51089153	     -4.72420095	     -1.83852761	     27.40609559
      2.49000000	    -10.06043380	      8.19639510	    -45.14484900	     -0.75447645	      0.88135787	      0.10468624	     -6.90734967	     -7.70333072	     13.25150161	    -18.56941382	     -8.42879696	     10.93039532	     44.03622202	     -9.60564281	     -7.18331240	    -55.90581340	      8.68632759	      6.59877349	     -4.06536670	     -1.45743563	     27.62395178
      2.50000000	    -10.49798285	      7.88629134	    -45.09342674	     -0.73400428	      0.88674176	      0.11579282	     -7.10478620	     -7.38379770	     13.31015995	    -19.38230116	    -10.86115836	     10.71032416	     42.79639611	     -9.53374526	     -6.42931241	    -50.14414499	      8.21996820	      6.81611081	     -3.48031109	     -0.96286412	     27.69798022
      2.51000000	    -10.95822753	      7.46454019	    -44.96122791	     -0.71342638	      0.89121258	      0.12685817	     -6.97740132	     -6.86691202	     13.14791062	    -21.02671685	    -12.28558130	     10.10771818	     41.40796121	     -9.53180177	     -5.53646686	    -44.59817538	      7.61561228	      7.16325865	     -2.96719003	     -0.36788919	     27.61502162
      2.52000000	    -11.39045484	      6.92797955	    -44.71142347	     -0.69270406	      0.89469050	      0.13779676	     -6.58145647	     -6.20809160	     12.66248377	    -23.50265722	    -12.78689484	      9.34368122	     39.92531796	     -9.57153272	     -4.56046573	    -39.49114868	      6.93235680	      7.42594715	     -2.57252476	      0.29093234	     27.34028428
      2.53000000	    -11.76984324	      6.31948443	    -44.35924125	     -0.67189981	      0.89712907	      0.14859808	     -5.94528095	     -5.47960614	     11.92676024	    -26.71254286	    -12.60720071	      8.34754481	     38.43716961	     -9.63948007	     -3.62355800	    -35.02755029	      6.22696783	      7.63675077	     -2.28142818	      0.95402425	     26.90774652
      2.54000000	    -12.03803039	      5.66955057	    -43.88313586	     -0.65101536	      0.89853484	      0.15914334	     -5.13169675	     -4.77933689	     10.95374247	    -30.55992930	    -11.92071573	      7.25118607	     36.98824878	     -9.65373079	     -2.80152462	    -31.37108474	      5.62548294	      7.74217029	     -2.12579213	      1.55809083	     26.28452713
      2.55000000	    -12.16073145	      5.02029867	    -43.28567215	     -0.63009542	      0.89892816	      0.16937291	     -4.17791185	     -4.19181767	      9.80277192	    -34.91888121	    -10.98452895	      6.15511604	     35.61688308	     -9.54871658	     -2.15959267	    -28.62172067	      5.24429064	      7.73300530	     -2.10689791	      2.04784619	     25.48028585
      2.56000000	    -12.11698661	      4.39145613	    -42.58055354	     -0.60922500	      0.89836203	      0.17927301	     -3.12705820	     -3.75948432	      8.56061908	    -39.66277943	     -9.97076413	      5.15253202	     34.32903615	     -9.28878425	     -1.71143059	    -26.81321433	      5.13737680	      7.60025232	     -2.23524801	      2.39228931	     24.51928009
      2.57000000	    -11.90493936	      3.79828553	    -41.78494185	     -0.58846239	      0.89686881	      0.18882967	     -2.00560849	     -3.49528972	      7.31919255	    -44.67813112	     -8.98046279	      4.31121101	     33.10954076	     -8.85643584	     -1.41621259	    -25.90389520	      5.37364351	      7.31956687	     -2.51001268	      2.58873128	     23.42901259
      2.58000000	    -11.54275844	      3.26487924	    -40.93341849	     -0.56793283	      0.89446269	      0.19811247	     -0.79973568	     -3.38901388	      6.17071167	    -49.88357654	     -8.07610459	      3.72484529	     31.93342642	     -8.26230491	     -1.19307156	    -25.77147948	      6.00636052	      6.87502201	     -2.90516845	      2.62940403	     22.24141669
      2.59000000	    -11.05396884	      2.79033266	    -40.05599545	     -0.54775882	      0.89115875	      0.20718477	      0.50275973	     -3.41029529	      5.15060203	    -55.22063025	     -7.23614441	      3.33677458	     30.79105620	     -7.54987698	     -0.99846236	    -26.31793752	      7.08589849	      6.23232121	     -3.41440470	      2.53447873	     20.99186226
      2.60000000	    -10.47351395	      2.36595351	    -39.19031296	     -0.52806544	      0.88700700	      0.21614600	      1.91914765	     -3.51142947	      4.29013702	    -60.62643593	     -6.38625860	      3.06661106	     29.66130286	     -6.77806827	     -0.77721157	    -27.39802483	      8.67088141	      5.34720394	     -4.02296791	      2.33001413	     19.72811429
      2.61000000	     -9.83053509	      2.02139419	    -38.35909653	     -0.50890971	      0.88205431	      0.22503878	      3.50145992	     -3.70019992	      3.58001412	    -66.05428822	     -5.54336795	      2.87727180	     28.56723325	     -5.96709685	     -0.55635547	    -28.89312747	     10.75709509	      4.31291511	     -4.68992759	      2.01428050	     18.45146462
      2.62000000	     -9.15686971	      1.76345780	    -37.57893114	     -0.49033994	      0.87642474	      0.23389486	      5.27879183	     -3.96449974	      3.00527291	    -71.43566093	     -4.64133286	      2.69461676	     27.52007689	     -5.14195092	     -0.33115524	    -30.67735855	     13.26337572	      3.21023605	     -5.39055893	      1.59886289	     17.18714763
      2.63000000	     -8.47727710	      1.57889620	    -36.85362404	     -0.47231845	      0.87033447	      0.24272893	      7.25092744	     -4.28010941	      2.54747866	    -76.68076563	     -3.63305441	      2.45061239	     26.51355743	     -4.33510255	     -0.13711276	    -32.63207106	     16.04208932	      2.07730089	     -6.11467867	      1.11999641	     15.93528531
      2.64000000	     -7.84469296	      1.51295811	    -36.19031211	     -0.45480640	      0.86395477	      0.25153748	      9.50636285	     -4.66430559	      2.19319428	    -81.72151374	     -2.62364729	      2.16103868	     25.58306786	     -3.53498028	      0.03699235	    -34.61933344	     18.91886418	      1.13993044	     -6.77833381	      0.57350531	     14.73570870
      2.65000000	     -7.29047063	      1.53406679	    -35.57251943	     -0.43770035	      0.85761265	      0.26034754	     12.02509296	     -5.05401397	      1.92450336	    -86.43690647	     -1.59118017	      1.81649336	     24.69402140	     -2.77910580	      0.18318013	    -36.50732130	     21.72433471	      0.39640485	     -7.36533160	      0.01305042	     13.55704904
